:FULLY-SPECIFIED
:FORCE-ALL-JOINTS-BE-3DOF
:DEGREES
713
root 5.4857 21.4492 7.68091 -136.692 -86.2145 153.105
lfemur -33.9417 -13.7121 8.90554
ltibia 66.7227 0 0
lfoot 7.48586 -9.29826 0
ltoes 29.8742 0 0
rfemur -33.16 -1.56715 -1.52953
rtibia 94.7275 0 0
rfoot 21.0561 -20.06 0
rtoes 41.8951 0 0
lowerback 5.91697 -0.650402 -1.79094
upperback -1.33561 -1.09241 -1.59133
thorax -4.7033 -0.521095 -0.539442
lowerneck -6.86737 -6.40654 -2.3718
upperneck -0.316137 -8.50899 4.91187
head 1.40272 -4.19057 1.65003
lclavicle 1.19636e-14 3.16434e-14 0
lhumerus -0.907306 -20.4221 16.532
lradius 45.583 0 0
lwrist 22.7276 0 0
lhand -22.205 -3.42945 0
lfingers 7.12502 0 0
lthumb 4.21077 26.5086 0
rclavicle 1.19636e-14 3.16434e-14 0
rhumerus -11.52 -2.02276 -27.2639
rradius 99.3031 0 0
rwrist -9.89912 0 0
rhand -26.7461 -34.105 0
rfingers 7.12502 0 0
rthumb -0.174788 -784.082 0
714
root 5.48961 21.5087 7.76626 -139.594 -86.9529 156.023
lfemur -33.6565 -14.2886 8.61941
ltibia 65.5373 0 0
lfoot 7.44769 -9.40496 0
ltoes 29.8442 0 0
rfemur -33.6604 -1.58177 -1.8182
rtibia 96.4217 0 0
rfoot 21.284 -20.5074 0
rtoes 42.6632 0 0
lowerback 5.976 -0.578475 -1.77913
upperback -1.32685 -0.996578 -1.57383
thorax -4.72718 -0.473184 -0.532874
lowerneck -6.87858 -6.44009 -2.4172
upperneck -0.40337 -8.54622 4.90291
head 1.37892 -4.21127 1.65389
lclavicle 1.26735e-14 3.17636e-14 0
lhumerus -1.54771 -20.2876 16.5995
lradius 44.8927 0 0
lwrist 22.5871 0 0
lhand -22.2155 -3.37355 0
lfingers 7.12502 0 0
lthumb 4.20068 26.5647 0
rclavicle 1.26735e-14 3.17636e-14 0
rhumerus -11.027 -1.89009 -27.4804
rradius 99.2684 0 0
rwrist -9.87736 0 0
rhand -26.6042 -33.9642 0
rfingers 7.12502 0 0
rthumb -0.0377529 -783.943 0
715
root 5.49097 21.5295 7.79601 -140.605 -87.2103 157.04
lfemur -33.5571 -14.4896 8.51967
ltibia 65.1241 0 0
lfoot 7.43438 -9.44215 0
ltoes 29.8338 0 0
rfemur -33.8349 -1.58686 -1.91882
rtibia 97.0122 0 0
rfoot 21.3635 -20.6634 0
rtoes 42.9309 0 0
lowerback 5.99658 -0.553404 -1.77502
upperback -1.3238 -0.963173 -1.56773
thorax -4.7355 -0.456483 -0.530585
lowerneck -6.88249 -6.45178 -2.43303
upperneck -0.433777 -8.5592 4.89979
head 1.37063 -4.21848 1.65523
lclavicle 1.2921e-14 3.18055e-14 0
lhumerus -1.77093 -20.2407 16.623
lradius 44.6521 0 0
lwrist 22.5382 0 0
lhand -22.2191 -3.35407 0
lfingers 7.12502 0 0
lthumb 4.19717 26.5843 0
rclavicle 1.2921e-14 3.18055e-14 0
rhumerus -10.8552 -1.84384 -27.5558
rradius 99.2563 0 0
rwrist -9.86977 0 0
rhand -26.5547 -33.9151 0
rfingers 7.12502 0 0
rthumb 0.0100137 -783.895 0
716
root 5.4849 21.5119 7.82546 -140.76 -86.8574 157.253
lfemur -33.4728 -14.5003 8.44611
ltibia 64.7964 0 0
lfoot 7.44871 -9.4737 0
ltoes 29.7635 0 0
rfemur -33.788 -1.76734 -1.95839
rtibia 97.204 0 0
rfoot 21.4383 -20.4771 0
rtoes 42.8464 0 0
lowerback 5.95804 -0.501794 -1.75364
upperback -1.33324 -0.892942 -1.56639
thorax -4.72038 -0.421927 -0.542834
lowerneck -6.89039 -6.45913 -2.42597
upperneck -0.442269 -8.56947 4.88819
head 1.36848 -4.22402 1.64991
lclavicle 1.31482e-14 3.12425e-14 0
lhumerus -2.11265 -20.2298 16.8203
lradius 44.6795 0 0
lwrist 22.525 0 0
lhand -22.2175 -3.35949 0
lfingers 7.12502 0 0
lthumb 4.19872 26.5789 0
rclavicle 1.31482e-14 3.12425e-14 0
rhumerus -10.5638 -1.76491 -27.6601
rradius 99.201 0 0
rwrist -9.85726 0 0
rhand -26.5759 -33.896 0
rfingers 7.12502 0 0
rthumb -0.0104184 -783.876 0
717
root 5.4675 21.4615 7.90997 -141.206 -85.8451 157.862
lfemur -33.2308 -14.5309 8.23507
ltibia 63.8564 0 0
lfoot 7.48982 -9.5642 0
ltoes 29.5619 0 0
rfemur -33.6534 -2.28512 -2.07191
rtibia 97.7541 0 0
rfoot 21.6529 -19.9425 0
rtoes 42.6039 0 0
lowerback 5.84747 -0.353734 -1.6923
upperback -1.36032 -0.691458 -1.56256
thorax -4.67702 -0.322792 -0.577973
lowerneck -6.91307 -6.48023 -2.40571
upperneck -0.466631 -8.59894 4.8549
head 1.36232 -4.23991 1.63465
lclavicle 1.37999e-14 2.96273e-14 0
lhumerus -3.09301 -20.1985 17.3865
lradius 44.758 0 0
lwrist 22.4873 0 0
lhand -22.2129 -3.37502 0
lfingers 7.12502 0 0
lthumb 4.20317 26.5632 0
rclavicle 1.37999e-14 2.96273e-14 0
rhumerus -9.72765 -1.53847 -27.9593
rradius 99.0424 0 0
rwrist -9.82138 0 0
rhand -26.6365 -33.8413 0
rfingers 7.12502 0 0
rthumb -0.0690351 -783.821 0
718
root 5.43995 21.3818 8.04372 -141.912 -84.2426 158.828
lfemur -32.8478 -14.5794 7.90102
ltibia 62.3684 0 0
lfoot 7.55488 -9.70745 0
ltoes 29.2427 0 0
rfemur -33.4403 -3.1047 -2.2516
rtibia 98.6248 0 0
rfoot 21.9925 -19.0964 0
rtoes 42.2201 0 0
lowerback 5.67246 -0.119375 -1.5952
upperback -1.40319 -0.372538 -1.5565
thorax -4.60838 -0.165875 -0.633595
lowerneck -6.94896 -6.51362 -2.37364
upperneck -0.505193 -8.64558 4.80221
head 1.35257 -4.26506 1.61049
lclavicle 1.48315e-14 2.70706e-14 0
lhumerus -4.64478 -20.149 18.2826
lradius 44.8823 0 0
lwrist 22.4275 0 0
lhand -22.2056 -3.39962 0
lfingers 7.12502 0 0
lthumb 4.21021 26.5385 0
rclavicle 1.48315e-14 2.70706e-14 0
rhumerus -8.40421 -1.18005 -28.4329
rradius 98.7914 0 0
rwrist -9.76459 0 0
rhand -26.7326 -33.7546 0
rfingers 7.12502 0 0
rthumb -0.161817 -783.733 0
719
root 5.40346 21.2761 8.22093 -142.847 -82.1196 160.106
lfemur -32.3404 -14.6436 7.45844
ltibia 60.397 0 0
lfoot 7.64109 -9.89725 0
ltoes 28.8198 0 0
rfemur -33.158 -4.19056 -2.48968
rtibia 99.7785 0 0
rfoot 22.4426 -17.9754 0
rtoes 41.7115 0 0
lowerback 5.44059 0.191129 -1.46656
upperback -1.45998 0.0500018 -1.54847
thorax -4.51744 0.0420262 -0.707288
lowerneck -6.99651 -6.55786 -2.33115
upperneck -0.556284 -8.70738 4.7324
head 1.33966 -4.29839 1.57848
lclavicle 1.61982e-14 2.36833e-14 0
lhumerus -6.70073 -20.0834 19.4698
lradius 45.0469 0 0
lwrist 22.3483 0 0
lhand -22.1959 -3.4322 0
lfingers 7.12502 0 0
lthumb 4.21954 26.5057 0
rclavicle 1.61982e-14 2.36833e-14 0
rhumerus -6.65077 -0.705167 -29.0604
rradius 98.4589 0 0
rwrist -9.68934 0 0
rhand -26.8599 -33.6398 0
rfingers 7.12502 0 0
rthumb -0.284744 -783.618 0
720
root 5.3592 21.148 8.4358 -143.981 -79.5453 161.657
lfemur -31.7252 -14.7215 6.9218
ltibia 58.0066 0 0
lfoot 7.74562 -10.1274 0
ltoes 28.307 0 0
rfemur -32.8157 -5.5072 -2.77835
rtibia 101.177 0 0
rfoot 22.9882 -16.6162 0
rtoes 41.0949 0 0
lowerback 5.15944 0.567626 -1.31058
upperback -1.52885 0.562346 -1.53873
thorax -4.40717 0.294113 -0.796643
lowerneck -7.05416 -6.6115 -2.27963
upperneck -0.618233 -8.78231 4.64775
head 1.32399 -4.33879 1.53967
lclavicle 1.78555e-14 1.9576e-14 0
lhumerus -9.19364 -20.0039 20.9094
lradius 45.2466 0 0
lwrist 22.2522 0 0
lhand -22.1842 -3.47171 0
lfingers 7.12502 0 0
lthumb 4.23085 26.466 0
rclavicle 1.78555e-14 1.9576e-14 0
rhumerus -4.52466 -0.129361 -29.8212
rradius 98.0556 0 0
rwrist -9.5981 0 0
rhand -27.0142 -33.5006 0
rfingers 7.12502 0 0
rthumb -0.433798 -783.477 0
